<svg width="20" height="22" viewBox="0 0 20 22" fill="none" xmlns="http://www.w3.org/2000/svg"><path d="M7.41687 9.66797C7.76187 9.66797 8.04187 9.35997 8.04187 8.98047V6.29922C8.04187 5.10056 8.92843 4.125 10.0181 4.125C11.1078 4.125 11.9947 5.10056 11.9947 6.29922V8.98047C11.9947 9.35997 12.2744 9.66797 12.6197 9.66797C12.9647 9.66797 13.2447 9.35997 13.2447 8.98047V6.29922C13.245 4.34225 11.7975 2.75 10.0181 2.75C8.23937 2.75 6.79187 4.34225 6.79187 6.29922V8.98047C6.79187 9.35997 7.07187 9.66797 7.41687 9.66797Z" fill="#fff"/><path d="M17.1875 8.12315H13.87V8.98047C13.87 9.73878 13.3094 10.3555 12.62 10.3555C11.9306 10.3555 11.37 9.73878 11.37 8.98047V8.12315H8.66718V8.98047C8.66718 9.73878 8.10655 10.3555 7.41718 10.3555C6.7278 10.3555 6.16718 9.73878 6.16718 8.98047V8.12315H2.81249C2.63999 8.12315 2.53343 8.27268 2.57437 8.45693L4.76124 18.2528C4.89312 18.8035 5.41999 19.25 5.93749 19.25H14.0625C14.5806 19.25 15.1069 18.8035 15.2394 18.2528L17.4256 8.45693C17.4666 8.27234 17.3603 8.12315 17.1875 8.12315Z" fill="#fff"/></svg>