<svg width="12" height="12" viewBox="0 0 12 12" fill="none" xmlns="http://www.w3.org/2000/svg"><g clip-path="url(#clip0_0_73)" fill="#000"><path d="M11.8359 6.02343C11.8359 6.83906 11.8195 7.65702 11.8406 8.47265C11.8758 9.9164 10.9688 11.032 9.81329 11.5289C9.34923 11.7281 8.86172 11.8336 8.35782 11.8336C6.78047 11.8359 5.20079 11.857 3.62344 11.8266C2.43516 11.8031 1.45782 11.3062 0.757037 10.3266C0.389069 9.81093 0.213287 9.22499 0.213287 8.58984C0.213287 6.90937 0.213287 5.23124 0.213287 3.55078C0.213287 2.17968 0.881256 1.22109 2.06719 0.59765C2.58282 0.328119 3.14297 0.213275 3.72657 0.210932C5.25704 0.210932 6.78985 0.201557 8.32032 0.215619C9.5086 0.224994 10.5 0.679682 11.2313 1.63593C11.6391 2.17031 11.8359 2.78437 11.8359 3.45937C11.8359 4.31249 11.8359 5.16796 11.8359 6.02343ZM1.07813 6.02343C1.07813 6.88359 1.07813 7.7414 1.07813 8.60156C1.07813 8.98593 1.16719 9.34687 1.36641 9.67265C1.88907 10.5281 2.67891 10.9453 3.6586 10.9617C5.23126 10.9852 6.80626 10.9711 8.38126 10.9664C8.76797 10.9664 9.14297 10.8867 9.49219 10.7203C10.4438 10.2656 10.9758 9.5414 10.9711 8.4539C10.9617 6.78984 10.9688 5.12577 10.9688 3.46171C10.9688 2.99062 10.8352 2.55937 10.5563 2.17968C10.0172 1.45078 9.27188 1.09218 8.38126 1.08281C6.81094 1.06406 5.24063 1.07578 3.67032 1.07812C3.33516 1.07812 3.01172 1.14609 2.69766 1.26328C1.83516 1.58437 1.0336 2.39765 1.0711 3.59531C1.09922 4.40624 1.07813 5.21484 1.07813 6.02343Z"/><path d="M6.0375 8.5078C4.52578 8.5078 3.30703 7.30311 3.30469 5.80311C3.30235 4.32655 4.53047 3.11718 6.03282 3.11718C7.53985 3.11483 8.76328 4.32186 8.76563 5.81014C8.76563 7.29608 7.54453 8.50546 6.0375 8.5078ZM6.0375 7.64061C7.06641 7.64061 7.90078 6.81796 7.89844 5.80546C7.8961 4.80233 7.06172 3.98202 6.0375 3.98202C5.0086 3.98202 4.16953 4.79999 4.16953 5.81014C4.17188 6.82264 5.0086 7.64296 6.0375 7.64061Z"/><path d="M9.08204 2.29688C9.39844 2.29688 9.65626 2.56641 9.65626 2.89688C9.65391 3.22734 9.39376 3.49453 9.07735 3.49219C8.76563 3.48984 8.51016 3.22266 8.51016 2.89922C8.50782 2.56875 8.76563 2.29688 9.08204 2.29688Z"/></g><defs><clipPath id="clip0_0_73"><path fill="#fff" d="M0 0H12V12H0z"/></clipPath></defs></svg>