<svg width="19" height="9" viewBox="0 0 19 9" fill="none" xmlns="http://www.w3.org/2000/svg"><path d="M1.805 4.4125C1.805 2.90342 3.1255 1.67675 4.75 1.67675H8.55V0H4.75C2.128 0 0 1.9768 0 4.4125C0 6.8482 2.128 8.825 4.75 8.825H8.55V7.14825H4.75C3.1255 7.14825 1.805 5.92158 1.805 4.4125ZM5.7 5.295H13.3V3.53H5.7V5.295ZM14.25 0H10.45V1.67675H14.25C15.8745 1.67675 17.195 2.90342 17.195 4.4125C17.195 5.92158 15.8745 7.14825 14.25 7.14825H10.45V8.825H14.25C16.872 8.825 19 6.8482 19 4.4125C19 1.9768 16.872 0 14.25 0Z" fill="#000"/></svg>