<svg width="150" height="87" viewBox="0 0 150 87" fill="none" xmlns="http://www.w3.org/2000/svg"><rect width="150" height="87" rx="15" fill="#EAEAEA"/><path fill-rule="evenodd" clip-rule="evenodd" d="M17.4191 58.0661V68.3665C18.484 67.9812 19.324 67.3177 19.9448 66.376C20.5601 65.445 20.8651 64.3855 20.8651 63.1922C20.8651 62.4538 20.7314 61.7367 20.4585 61.0466C20.207 60.4097 19.811 59.8211 19.2706 59.2754C18.7461 58.7724 18.1307 58.371 17.4191 58.0661ZM16.135 69.8861V56.5143C17.0446 56.6321 17.8687 56.8728 18.6124 57.2367C19.3508 57.6112 19.9875 58.0928 20.5227 58.6814C21.047 59.2648 21.4484 59.9389 21.7319 60.704C22.0102 61.4639 22.1547 62.2933 22.1547 63.1922C22.1547 64.3748 21.8924 65.4718 21.3681 66.4884C20.8383 67.4889 20.116 68.2916 19.2063 68.8856C18.3074 69.4902 17.2853 69.8273 16.135 69.8861ZM15.2841 74.4825H16.135V70.7637C17.4191 70.7049 18.591 70.325 19.6451 69.6347C20.6671 68.9658 21.4912 68.0615 22.1065 66.911C22.7112 65.7927 23.0161 64.5621 23.0161 63.2242C23.0161 61.7315 22.6256 60.367 21.839 59.1363C21.0577 57.9003 19.9983 56.9852 18.6712 56.3912C17.7509 55.9631 16.6218 55.7118 15.2841 55.6368V74.4825ZM17.4191 71.9409V75.7668H14V54.1011C16.2901 54.1867 18.1307 54.5934 19.522 55.3264C20.4905 55.8455 21.3413 56.5143 22.0745 57.333C22.7861 58.1249 23.3318 59.0345 23.7226 60.0566C24.1077 61.0625 24.3004 62.1113 24.3004 63.2083C24.3004 64.6209 23.9953 65.9372 23.3908 67.1626C23.0964 67.7886 22.7486 68.3612 22.3472 68.8749C21.946 69.3938 21.4751 69.8702 20.9294 70.3089C19.8645 71.1704 18.6927 71.7108 17.4191 71.9409ZM29.8492 58.3015V67.8368C30.9355 67.5639 31.8023 66.9859 32.4498 66.1085C33.1079 65.2095 33.4397 64.182 33.4397 63.021C33.4397 61.892 33.124 60.9181 32.498 60.0888C31.8506 59.2539 30.9676 58.6601 29.8492 58.3015ZM29.8492 69.2601H28.5651V56.4716C29.7636 56.6909 30.8392 57.1083 31.7916 57.7236C32.7228 58.3283 33.4504 59.0988 33.9695 60.0298C34.4724 60.9448 34.724 61.9615 34.724 63.0691C34.724 63.8022 34.6168 64.4978 34.3975 65.156C34.1461 65.841 33.8196 66.4348 33.4237 66.9271C33.0062 67.4569 32.498 67.9171 31.904 68.3023C31.2834 68.7144 30.6038 69.03 29.8492 69.2601ZM27.7143 55.4976V74.4825H28.5651V70.1216H29.8492C32.2412 70.7476 33.9426 72.2726 34.9433 74.6859L35.853 74.4344C34.9861 72.1228 33.4237 70.5389 31.1656 69.6828C32.0539 69.3297 32.8404 68.8159 33.52 68.1472C34.2156 67.4675 34.7399 66.7132 35.0825 65.873C35.4517 64.9954 35.6336 64.0858 35.6336 63.1495C35.6336 62.122 35.4517 61.1535 35.0825 60.2492C34.7079 59.377 34.1781 58.6065 33.4878 57.9269C32.7762 57.2474 31.9362 56.6963 30.9623 56.2788C29.9991 55.8723 28.9182 55.61 27.7143 55.4976ZM29.8492 75.7668H26.4301V54.1011C27.6982 54.1652 28.747 54.2937 29.5817 54.4917C30.4807 54.7004 31.2834 54.9893 31.995 55.3532C33.0545 55.8882 33.9481 56.5518 34.6758 57.349C35.4089 58.141 35.9654 59.0345 36.3398 60.0298C36.7145 61.0091 36.9018 62.0846 36.9018 63.2564C36.9018 65.9318 35.8476 68.0722 33.734 69.6828C34.3012 70.0521 34.8523 70.5389 35.382 71.1597C35.9279 71.7964 36.3667 72.476 36.6984 73.1984C37.0569 73.9582 37.287 74.6752 37.3887 75.344L34.0657 76.2537C33.8893 75.4779 33.5949 74.7554 33.1883 74.076C32.803 73.4178 32.3161 72.8666 31.7275 72.4279C31.1335 71.9997 30.5075 71.7054 29.8492 71.5503V75.7668ZM42.5309 60.5917V69.5437C42.5309 70.5069 42.6218 71.1597 42.8145 71.5022C43.0232 71.8766 43.3121 72.1711 43.692 72.3798C44.0559 72.6098 44.4519 72.7274 44.88 72.7274C45.3616 72.7274 45.7949 72.5937 46.1802 72.3315C46.5815 72.064 46.8598 71.7269 47.031 71.3309C47.1648 70.9937 47.2343 70.3999 47.2343 69.5437V60.5917C47.2343 59.6606 47.138 59.0078 46.9507 58.6333C46.7635 58.2587 46.4852 57.9591 46.1214 57.7397C45.7415 57.5202 45.3294 57.408 44.88 57.408C44.4091 57.408 43.9756 57.5363 43.5798 57.7879C43.1838 58.0554 42.9001 58.3978 42.7342 58.8045C42.6004 59.1095 42.5309 59.7035 42.5309 60.5917ZM48.5186 60.5917V69.5437C48.5186 70.6727 48.3794 71.5128 48.0958 72.0693C47.8015 72.6418 47.3628 73.1127 46.7794 73.4766C46.2016 73.8351 45.5703 74.0117 44.88 74.0117C44.1522 74.0117 43.478 73.8083 42.8573 73.4016C42.2527 73.0004 41.8139 72.4706 41.5409 71.8018C41.3431 71.3416 41.2466 70.5871 41.2466 69.5437V60.5917C41.2466 59.9657 41.2734 59.4626 41.3377 59.0881C41.4019 58.7028 41.5089 58.3603 41.6694 58.0661C41.9905 57.44 42.4346 56.9584 43.0018 56.6267C43.585 56.2896 44.2111 56.1237 44.88 56.1237C45.613 56.1237 46.2872 56.3217 46.9025 56.7177C47.5179 57.1296 47.9566 57.6648 48.2189 58.3336C48.4169 58.7938 48.5186 59.5482 48.5186 60.5917ZM40.3851 60.7789V69.3565C40.3851 70.2875 40.428 70.967 40.5243 71.4058C40.5992 71.8178 40.7759 72.2726 41.0541 72.7703C41.4446 73.3909 41.9905 73.8939 42.7022 74.2954C43.3818 74.6805 44.1093 74.8732 44.88 74.8732C45.72 74.8732 46.4959 74.6539 47.2183 74.215C47.9407 73.7869 48.4811 73.2091 48.8503 72.492C49.0483 72.1014 49.1874 71.7054 49.273 71.2989C49.3319 70.9029 49.364 70.2553 49.364 69.3565V60.7789C49.364 59.8479 49.3158 59.1523 49.2248 58.6814C49.1285 58.1998 48.9519 57.7611 48.6898 57.3598C48.2938 56.7123 47.7479 56.204 47.0631 55.824C46.3728 55.4495 45.6452 55.2622 44.88 55.2622C44.0773 55.2622 43.3014 55.4816 42.563 55.9204C41.8406 56.3485 41.2841 56.9263 40.8989 57.6433C40.6795 58.0821 40.5404 58.5048 40.4761 58.9169C40.4119 59.3343 40.3851 59.9549 40.3851 60.7789ZM50.6481 60.7789V69.3565C50.6481 70.4319 50.6 71.2292 50.493 71.7537C50.3913 72.2994 50.156 72.8612 49.7868 73.4445C49.2677 74.2847 48.5667 74.9427 47.6891 75.4189C46.7901 75.9112 45.8539 76.1574 44.88 76.1574C44.1522 76.1574 43.462 76.029 42.8145 75.7668C42.1456 75.5152 41.5464 75.1568 41.0273 74.6859C40.4922 74.215 40.0695 73.68 39.7538 73.086C39.4755 72.5135 39.2936 71.9997 39.2241 71.5503C39.1385 71.0473 39.0956 70.3143 39.0956 69.3565V60.7789C39.0956 59.6928 39.1598 58.8794 39.2829 58.3336C39.3899 57.8038 39.6201 57.2527 39.9732 56.6909C40.4975 55.8508 41.1985 55.1927 42.0761 54.7111C42.9751 54.2242 43.9115 53.978 44.88 53.978C45.5916 53.978 46.2765 54.1011 46.9347 54.3525C47.5821 54.6041 48.1814 54.9572 48.7219 55.4174C49.2355 55.8882 49.6583 56.4341 49.99 57.0494C50.2736 57.6005 50.4502 58.109 50.5251 58.569C50.6108 59.1042 50.6481 59.8372 50.6481 60.7789ZM59.8089 56.2629L59.4183 55.4976C57.9094 56.2093 56.6786 57.2688 55.7154 58.6814C55.4854 59.0025 55.2554 59.3931 55.0252 59.8533C54.838 60.2546 54.6774 60.6933 54.5383 61.1696C54.4045 61.6511 54.3135 62.1274 54.276 62.5982C54.2226 63.144 54.1958 63.6416 54.1958 64.1018V74.4825H55.0574L55.0733 64.6691C55.0733 63.1922 55.2125 61.999 55.4961 61.0786C55.7583 60.1797 56.2452 59.3129 56.9568 58.4781C57.8558 57.4187 58.8029 56.6855 59.8089 56.2629ZM62.3291 74.4825V58.4299H61.4676V74.4825H62.3291ZM64.3839 55.4976L63.9933 56.2629C65.1544 56.7658 66.1925 57.6167 67.1128 58.8206C67.7069 59.5965 68.1295 60.4151 68.3649 61.2819C68.6057 62.1595 68.7287 63.2885 68.7287 64.6691L68.7449 74.4825H69.6063V64.1018C69.6063 62.9407 69.4887 61.9562 69.2585 61.1428C69.0231 60.3027 68.6218 59.4841 68.0707 58.6814C67.1075 57.2688 65.8821 56.2093 64.3839 55.4976ZM70.8906 64.1018V75.7668H67.4607L67.4446 64.6691C67.4446 63.4972 67.3804 62.6089 67.252 62.0044C67.1075 61.3675 66.8613 60.7523 66.5188 60.169C66.1283 59.5109 65.727 58.9864 65.3097 58.6012C64.8601 58.173 64.2983 57.7985 63.6187 57.4721V75.7668H60.1835V57.4721C59.536 57.7879 58.9795 58.1623 58.5086 58.6012C58.0699 59.0078 57.6578 59.5322 57.2833 60.169C56.9194 60.8379 56.6732 61.4585 56.5449 62.0364C56.4218 62.6304 56.3576 63.5079 56.3576 64.6691L56.3254 75.7668H52.9116V64.1018C52.9116 63.2351 52.9758 62.4592 53.115 61.7689C53.2487 61.0357 53.4413 60.367 53.6929 59.7623C53.9656 59.1363 54.3028 58.537 54.6988 57.975C56.0045 56.1023 57.7756 54.7378 60.0123 53.8818L61.8904 57.4721L63.7899 53.8818C66.0159 54.7378 67.7816 56.1023 69.0873 57.975C69.7027 58.8419 70.1575 59.757 70.4518 60.7148C70.746 61.6886 70.8906 62.8177 70.8906 64.1018ZM74.6362 74.4825H81.4425V73.6212H75.487V64.4336H81.4425V63.5721H75.487V56.4983H80.6881L80.565 55.6528H74.6362V74.4825ZM82.7107 72.3475V75.7668H73.3521V54.3686H81.6779L82.165 57.7879H76.7711V62.2826H82.7107V65.7018H76.7711V72.3475H82.7107ZM86.36 74.4825H87.2108V60.6719L94.9214 72.2726V55.6528H94.06V69.3565L86.36 57.9269V74.4825ZM88.4949 64.9205V75.7668H85.0758V53.7265L92.7757 65.156V54.3686H96.2056V76.5213L88.4949 64.9205ZM102.086 66.7988H106.367V63.7594C106.367 61.2498 105.655 59.3503 104.237 58.05C102.803 59.361 102.086 61.2605 102.086 63.7594V66.7988ZM107.651 68.0829H100.818V63.7594C100.818 62.6947 100.946 61.7046 101.193 60.795C101.423 59.9174 101.797 59.1042 102.306 58.3497C102.787 57.638 103.429 56.9584 104.237 56.311C105.388 57.1993 106.249 58.2587 106.822 59.4787C107.378 60.704 107.651 62.1274 107.651 63.7594V68.0829ZM100.818 68.9337H107.651V74.4825H108.518V63.6952C108.518 60.0084 107.089 57.1885 104.237 55.2462C101.385 57.1885 99.9566 60.0084 99.9566 63.6952V74.4825H100.818V68.9337ZM106.367 70.2179H102.086V75.7668H98.6723V63.6952C98.6723 62.4858 98.8008 61.389 99.0629 60.4205C99.3037 59.468 99.705 58.5316 100.272 57.6112C100.781 56.7658 101.364 56.0274 102.011 55.3853C102.669 54.7592 103.413 54.2188 104.237 53.7587C105.061 54.2188 105.805 54.7592 106.463 55.3853C107.111 56.0274 107.689 56.7658 108.202 57.6112C108.764 58.5102 109.181 59.4412 109.438 60.4044C109.679 61.3675 109.802 62.4644 109.802 63.6952V75.7668H106.367V70.2179ZM115.683 58.05V72.1924C116.758 71.8393 117.684 71.3096 118.455 70.6086C119.209 69.9504 119.798 69.137 120.231 68.1632C120.638 67.2001 120.841 66.1887 120.841 65.1239C120.841 64.0483 120.638 63.0317 120.231 62.0793C119.798 61.1215 119.209 60.2975 118.455 59.6179C117.673 58.9276 116.748 58.4085 115.683 58.05ZM114.399 73.6639V56.4983C115.988 56.7819 117.363 57.3116 118.535 58.0821C119.685 58.8687 120.573 59.864 121.2 61.0786C121.815 62.288 122.125 63.6257 122.125 65.0917C122.125 66.5526 121.815 67.8903 121.2 69.1049C120.573 70.3035 119.685 71.2935 118.535 72.0693C117.374 72.8505 115.999 73.3857 114.399 73.6639ZM113.548 55.4656V74.6859C114.136 74.643 114.827 74.5254 115.619 74.3221C116.373 74.1348 117.037 73.9154 117.609 73.6639C118.717 73.1555 119.68 72.4653 120.493 71.5984C121.312 70.721 121.927 69.731 122.345 68.634C122.773 67.505 122.987 66.3172 122.987 65.0758C122.987 63.1547 122.505 61.4264 121.547 59.9015C121.066 59.1417 120.493 58.4727 119.835 57.8948C119.177 57.3223 118.438 56.8567 117.609 56.4983C116.314 55.9043 114.96 55.5619 113.548 55.4656ZM112.264 76.0183V54.1171C113.173 54.1706 113.938 54.2455 114.554 54.3366C115.346 54.4542 115.999 54.5826 116.496 54.7271C117.053 54.8984 117.598 55.1016 118.144 55.3425C119.396 55.915 120.488 56.6855 121.419 57.6433C122.329 58.6172 123.035 59.7355 123.538 60.9984C124.025 62.2826 124.271 63.6364 124.271 65.0596C124.271 66.483 124.025 67.8368 123.538 69.121C123.024 70.4052 122.318 71.5235 121.419 72.476C120.499 73.4445 119.407 74.2204 118.144 74.7929C117.556 75.0445 117.01 75.2425 116.496 75.3922C116.014 75.5368 115.367 75.6705 114.554 75.7988C113.938 75.8899 113.173 75.9648 112.264 76.0183ZM127.69 74.4825H134.496V73.6212H128.541V64.4336H134.496V63.5721H128.541V56.4983H133.742L133.619 55.6528H127.69V74.4825ZM135.765 72.3475V75.7668H126.406V54.3686H134.732L135.219 57.7879H129.825V62.2826H135.765V65.7018H129.825V72.3475H135.765Z" fill="#700C30"/><path fill-rule="evenodd" clip-rule="evenodd" d="M71.438 18.5843V21.41C71.438 21.714 71.5344 21.8981 71.7269 21.9608C71.8328 21.9974 71.9837 22.0164 72.1789 22.0164V22.3079H70.3681V22.0164H70.4124C70.606 22.0164 70.7453 21.9858 70.8281 21.9247C70.93 21.8539 70.981 21.7275 70.981 21.5449V18.1133C70.8231 18.0039 70.6241 17.9488 70.3832 17.9488V17.6575H71.9231L74.975 20.8443V18.5843C74.975 18.2458 74.8907 18.0501 74.7197 17.997C74.6198 17.9648 74.468 17.9488 74.2633 17.9488H74.1906V17.6575H76.1181V17.9488H76.0453C75.8503 17.9488 75.7118 17.9664 75.629 18.0005C75.4976 18.0561 75.432 18.1654 75.432 18.329V22.3295H75.0192L71.438 18.5843Z" fill="#004F65"/><path fill-rule="evenodd" clip-rule="evenodd" d="M54.5169 38.0227L54.9441 37.175C55.0068 37.0487 55.0255 36.9619 54.9989 36.9127C54.9693 36.8591 54.8735 36.8325 54.7104 36.8325H54.3098C54.1657 36.8325 54.0794 36.8576 54.0499 36.9093C54.0209 36.9625 54.0344 37.0466 54.089 37.1611L54.5169 38.0227ZM52.9104 41.2974L51.0857 37.4605C50.9954 37.2728 50.9422 37.1655 50.9277 37.1395C50.8529 37.0125 50.7742 36.9298 50.6924 36.8907C50.6116 36.8522 50.5084 36.8325 50.3845 36.8325H50.3218V36.5401H52.3045V36.8325C52.1536 36.847 52.0667 36.8887 52.0416 36.9564C52.0176 37.0296 52.0407 37.1401 52.1119 37.2889L53.4941 40.1724L53.9727 39.1939L53.0899 37.3397C53.0087 37.1717 52.947 37.0597 52.9034 37.004C52.8131 36.8923 52.7062 36.8345 52.5824 36.8325V36.5401H55.8565V36.8325C55.6765 36.8667 55.545 36.9434 55.4622 37.0623C55.4136 37.1355 55.3555 37.2413 55.2872 37.3798L54.7431 38.4862L55.5285 40.0777L56.5577 37.4605C56.643 37.2463 56.6585 37.0893 56.6059 36.9891C56.5522 36.8873 56.4162 36.8345 56.1996 36.8325V36.5401H57.7113V36.8325C57.5117 36.8451 57.3547 36.9133 57.2403 37.0407C57.1581 37.128 57.0724 37.2824 56.9851 37.5042L55.4734 41.2974H54.9878L54.1888 39.6503L53.411 41.2974H52.9104Z" fill="#004F65"/><path fill-rule="evenodd" clip-rule="evenodd" d="M42.2637 38.7235L49.8142 41.1089L47.6485 38.7235L49.8142 36.3375L42.2637 38.7235Z" fill="#004F65"/><path fill-rule="evenodd" clip-rule="evenodd" d="M48.7314 37.0457L47.1714 38.7235H43.2614L48.7314 37.0457Z" fill="#004F65"/><path fill-rule="evenodd" clip-rule="evenodd" d="M73.1027 9L70.7178 16.5505L73.1027 14.3841L75.4881 16.5505L73.1027 9Z" fill="#004F65"/><path fill-rule="evenodd" clip-rule="evenodd" d="M74.7804 15.4675L73.1027 13.9081V9.9975L74.7804 15.4675Z" fill="#004F65"/><path fill-rule="evenodd" clip-rule="evenodd" d="M59.6981 50.9134C59.6981 51.4134 60.1027 51.8182 60.6029 51.8182C61.1019 51.8182 61.5077 51.4134 61.5077 50.9134C61.5077 50.4138 61.1019 50.0086 60.6029 50.0086C60.1027 50.0086 59.6981 50.4138 59.6981 50.9134Z" fill="#004F65"/><path fill-rule="evenodd" clip-rule="evenodd" d="M60.8275 50.2433C60.9539 50.3707 61.0326 50.5467 61.0326 50.7398C61.0326 51.1301 60.7146 51.4476 60.3235 51.4476C60.2447 51.4476 60.1699 51.4345 60.0987 51.4105C60.2277 51.5404 60.4047 51.6216 60.6029 51.6216C60.9926 51.6216 61.3105 51.3041 61.3105 50.9134C61.3105 50.6019 61.1069 50.3376 60.8275 50.2433Z" fill="#004F65"/><path fill-rule="evenodd" clip-rule="evenodd" d="M59.6981 26.5526C59.6981 27.0521 60.1027 27.4574 60.6029 27.4574C61.1019 27.4574 61.5077 27.0521 61.5077 26.5526C61.5077 26.0525 61.1019 25.6472 60.6029 25.6472C60.1027 25.6472 59.6981 26.0525 59.6981 26.5526Z" fill="#004F65"/><path fill-rule="evenodd" clip-rule="evenodd" d="M60.8275 25.882C60.9539 26.0099 61.0326 26.1854 61.0326 26.378C61.0326 26.7687 60.7146 27.0867 60.3235 27.0867C60.2447 27.0867 60.1699 27.0727 60.0987 27.0491C60.2277 27.179 60.4047 27.2602 60.6029 27.2602C60.9926 27.2602 61.3105 26.9423 61.3105 26.5526C61.3105 26.2411 61.1069 25.9762 60.8275 25.882Z" fill="#004F65"/><path fill-rule="evenodd" clip-rule="evenodd" d="M84.7611 50.9038C84.7611 51.4033 85.1657 51.8087 85.6659 51.8087C86.1649 51.8087 86.5711 51.4033 86.5711 50.9038C86.5711 50.4043 86.1649 49.9991 85.6659 49.9991C85.1657 49.9991 84.7611 50.4043 84.7611 50.9038Z" fill="#004F65"/><path fill-rule="evenodd" clip-rule="evenodd" d="M85.8915 50.2338C86.0174 50.3612 86.0956 50.5366 86.0956 50.7303C86.0956 51.1206 85.7776 51.4385 85.3869 51.4385C85.3081 51.4385 85.2325 51.4249 85.1613 51.4009C85.2907 51.5313 85.4682 51.612 85.6659 51.612C86.0556 51.612 86.374 51.2946 86.374 50.9038C86.374 50.5929 86.1708 50.3281 85.8915 50.2338Z" fill="#004F65"/><path fill-rule="evenodd" clip-rule="evenodd" d="M84.7611 26.5431C84.7611 27.0425 85.1657 27.4473 85.6659 27.4473C86.1649 27.4473 86.5711 27.0425 86.5711 26.5431C86.5711 26.0429 86.1649 25.6377 85.6659 25.6377C85.1657 25.6377 84.7611 26.0429 84.7611 26.5431Z" fill="#004F65"/><path fill-rule="evenodd" clip-rule="evenodd" d="M85.8915 25.8724C86.0174 26.0004 86.0956 26.1758 86.0956 26.3689C86.0956 26.7592 85.7776 27.0772 85.3869 27.0772C85.3081 27.0772 85.2325 27.0636 85.1613 27.0395C85.2907 27.1695 85.4682 27.2507 85.6659 27.2507C86.0556 27.2507 86.374 26.9332 86.374 26.5431C86.374 26.231 86.1708 25.9673 85.8915 25.8724Z" fill="#004F65"/><path fill-rule="evenodd" clip-rule="evenodd" d="M93.8192 37.1059C93.7866 36.8667 93.7459 36.7036 93.6973 36.6174C93.616 36.475 93.4771 36.4037 93.2805 36.4037H91.5672V38.1631H92.8346C93.0463 38.1631 93.1963 38.1215 93.287 38.0377C93.3768 37.9536 93.4225 37.807 93.4225 37.5984H93.7354V39.1562H93.4225C93.4225 38.8759 93.3378 38.7058 93.1707 38.6447C93.0683 38.6086 92.9169 38.5909 92.7163 38.5909H91.5672V39.9999C91.5672 40.1418 91.5807 40.2392 91.6093 40.2898C91.6469 40.366 91.7302 40.4041 91.8576 40.4041H93.1626C93.4481 40.4041 93.6567 40.341 93.7886 40.2136C93.909 40.1017 93.9997 39.8995 94.064 39.6062H94.3574L94.2666 40.836H89.5589V40.5305H89.8799C90.2867 40.5305 90.4903 40.3434 90.4903 39.9693V36.85C90.4903 36.6184 90.4327 36.4619 90.3178 36.3801C90.222 36.3119 90.0515 36.2773 89.8061 36.2773H89.7299V35.9718H94.0368L94.1166 37.1059H93.8192Z" fill="#004F65"/><path fill-rule="evenodd" clip-rule="evenodd" d="M104.204 38.4596L96.3075 35.9648L98.5725 38.4596L96.3075 40.9543L104.204 38.4596Z" fill="#004F65"/><path fill-rule="evenodd" clip-rule="evenodd" d="M97.4399 40.2136L99.0705 38.4596H103.16L97.4399 40.2136Z" fill="#004F65"/><path fill-rule="evenodd" clip-rule="evenodd" d="M75.754 38.2967L78.1855 35.863C78.6971 36.5706 79.0482 37.3979 79.1952 38.2967H75.754ZM75.754 40.1789H79.1952C79.0482 41.0773 78.6971 41.9033 78.1855 42.6111L75.754 40.1789ZM74.4222 41.5116L76.8539 43.9437C76.1461 44.4543 75.3191 44.8058 74.4222 44.9533V41.5116ZM72.5384 41.5116V44.9533C71.6416 44.8058 70.8141 44.4543 70.1054 43.9437L72.5384 41.5116ZM71.2053 40.1789L68.7728 42.6111C68.2627 41.9033 67.9115 41.0773 67.7646 40.1789H71.2053ZM71.2053 38.2967H67.7646C67.9115 37.3983 68.2627 36.5706 68.7728 35.863L71.2053 38.2967ZM72.5384 36.9635L70.1054 34.5299C70.8141 34.0203 71.6416 33.6697 72.5384 33.5223V36.9635ZM74.4222 33.5223C75.3191 33.6697 76.1461 34.0203 76.8539 34.5299L74.4222 36.9625V33.5223ZM85.5906 37.7975H82.0536C81.6709 37.7975 81.3288 37.9505 81.0711 38.1953C80.8875 36.8566 80.3583 35.6273 79.5758 34.6011C79.934 34.5936 80.2901 34.4652 80.5609 34.1914L83.0606 31.6931C83.6239 31.1298 83.6239 30.218 83.0606 29.6557C82.4995 29.0934 81.5876 29.0934 81.0254 29.6557L78.5236 32.157C78.2517 32.4294 78.1227 32.7834 78.1164 33.1415C77.0901 32.3586 75.8613 31.8315 74.5236 31.6464C74.7669 31.3901 74.9194 31.046 74.9194 30.6633V27.1284C74.9194 26.3324 74.2748 25.6873 73.4784 25.6873C72.6839 25.6873 72.0388 26.3324 72.0388 27.1284V30.6633C72.0388 31.046 72.1908 31.3901 72.4361 31.6464C71.0985 31.8315 69.8696 32.3586 68.8429 33.1415C68.8355 32.7834 68.7081 32.4294 68.4347 32.157L65.9344 29.6557C65.3721 29.0934 64.4598 29.0934 63.898 29.6557C63.3358 30.2174 63.3353 31.1303 63.898 31.6931L66.3989 34.1928C66.6707 34.4656 67.0253 34.5936 67.3829 34.6011C66.6019 35.6263 66.0733 36.8566 65.8892 38.1953C65.632 37.9505 65.2894 37.7975 64.9062 37.7975H61.3697C60.5731 37.7975 59.9287 38.4431 59.9287 39.2376C59.9287 40.033 60.5731 40.6785 61.3697 40.6785H64.9052C65.2889 40.6785 65.6314 40.5255 65.8888 40.2807C66.0729 41.62 66.6015 42.8483 67.3819 43.8739C67.0247 43.881 66.6702 44.0094 66.3979 44.2812L63.897 46.7821C63.3348 47.3452 63.3348 48.2566 63.8975 48.8183C64.4603 49.3811 65.3726 49.3811 65.9338 48.8193L68.4346 46.3186C68.708 46.0472 68.8354 45.6902 68.8428 45.334C69.8695 46.116 71.0984 46.646 72.436 46.8277C72.1907 47.0855 72.0387 47.4276 72.0387 47.8117V51.3478C72.0387 52.1432 72.6844 52.7872 73.4783 52.7872C74.2757 52.7872 74.9193 52.1422 74.9193 51.3478V47.8117C74.9193 47.4276 74.7668 47.0855 74.5235 46.8277C75.8612 46.645 77.09 46.115 78.1163 45.334C78.1227 45.6902 78.2516 46.0472 78.5235 46.3186L81.0257 48.8193C81.5875 49.3816 82.4994 49.3816 83.0616 48.8183C83.6238 48.2552 83.6238 47.3438 83.0616 46.7821L80.5608 44.2812C80.29 44.0094 79.9344 43.881 79.5757 43.8739C80.3582 42.8492 80.8874 41.62 81.071 40.2807C81.3287 40.5255 81.6708 40.6785 82.0535 40.6785H85.5905C86.387 40.6785 87.0299 40.033 87.0299 39.2376C87.0299 38.4431 86.3855 37.7975 85.5906 37.7975Z" fill="#004F65"/></svg>