<svg width="20" height="21" viewBox="0 0 20 21" fill="none" xmlns="http://www.w3.org/2000/svg"><g clip-path="url(#clip0_0_64)"><path d="M13.75 14.4H6.25C5.905 14.4 5.625 14.68 5.625 15.025C5.625 15.37 5.905 15.65 6.25 15.65H13.75C14.095 15.65 14.375 15.37 14.375 15.025C14.375 14.68 14.095 14.4 13.75 14.4ZM13.75 10.65H6.25C5.905 10.65 5.625 10.93 5.625 11.275C5.625 11.62 5.905 11.9 6.25 11.9H13.75C14.095 11.9 14.375 11.62 14.375 11.275C14.375 10.93 14.095 10.65 13.75 10.65ZM13.75 6.89999H6.25C5.905 6.89999 5.625 7.17999 5.625 7.52499C5.625 7.86999 5.905 8.14999 6.25 8.14999H13.75C14.095 8.14999 14.375 7.86999 14.375 7.52499C14.375 7.17999 14.095 6.89999 13.75 6.89999ZM14.375 1.89999V0.649994H13.125V1.89999H10.625V0.649994H9.375V1.89999H6.875V0.649994H5.625V1.89999C4.24437 1.89999 3.125 3.01936 3.125 4.39999V18.15C3.125 19.5306 4.24437 20.65 5.625 20.65H14.375C15.7556 20.65 16.875 19.5306 16.875 18.15V4.39999C16.875 3.01936 15.7556 1.89999 14.375 1.89999ZM15.625 18.15C15.625 18.84 15.0656 19.4 14.375 19.4H5.625C4.93437 19.4 4.375 18.84 4.375 18.15V4.39999C4.375 3.70936 4.93437 3.14999 5.625 3.14999H14.375C15.0656 3.14999 15.625 3.70999 15.625 4.39999V18.15Z" fill="#fff"/></g><defs><clipPath id="clip0_0_64"><path fill="#fff" transform="translate(0 .65)" d="M0 0H20V20H0z"/></clipPath></defs></svg>